<?xml version="1.0" standalone="no"?>
<!DOCTYPE svg PUBLIC "-//W3C//DTD SVG 20010904//EN"
 "http://www.w3.org/TR/2001/REC-SVG-20010904/DTD/svg10.dtd">
<svg version="1.0" xmlns="http://www.w3.org/2000/svg"
 width="300.000000pt" height="300.000000pt" viewBox="0 0 300.000000 300.000000"
 preserveAspectRatio="xMidYMid meet">
<metadata>
Created by potrace 1.10, written by Peter Selinger 2001-2011
</metadata>
<g transform="translate(0.000000,300.000000) scale(0.100000,-0.100000)"
fill="#000000" stroke="none">
<path d="M1828 2910 c-167 -26 -331 -134 -411 -271 -34 -58 -72 -170 -82 -237
l-7 -51 -55 -16 c-124 -36 -210 -87 -305 -181 -216 -213 -286 -543 -182 -854
72 -214 275 -405 483 -453 l53 -12 -5 -200 c-7 -262 -31 -348 -107 -388 -80
-42 -168 4 -205 106 -40 112 -77 147 -155 147 -32 0 -48 -7 -76 -33 -98 -89
-23 -254 146 -324 67 -27 204 -24 293 6 220 75 350 270 366 550 7 129 -5 115
111 141 70 16 209 80 263 121 60 46 137 121 137 134 0 5 -7 19 -15 29 -15 19
-16 19 -48 -11 -54 -52 -145 -110 -220 -142 -75 -31 -189 -56 -213 -47 -12 5
-14 93 -12 563 l3 558 177 3 177 2 17 -31 c9 -18 26 -59 39 -93 19 -51 27 -62
49 -64 l26 -3 0 126 0 125 -62 63 c-41 40 -91 77 -143 104 -80 41 -207 83
-254 83 l-24 0 6 128 c10 244 64 320 222 310 83 -5 126 -34 204 -137 64 -84
99 -114 143 -125 62 -15 148 55 148 119 0 48 -14 78 -56 125 -92 101 -267 155
-426 130z m-107 -669 c30 -12 70 -34 89 -50 l35 -30 -132 -1 -133 0 0 56 0 57
44 -6 c24 -4 68 -15 97 -26z m-401 -41 c0 -40 0 -40 -40 -40 -35 0 -40 3 -40
23 0 16 10 28 33 40 45 22 47 22 47 -23z m-160 -642 l0 -493 -21 25 c-80 100
-142 223 -165 328 -18 86 -18 240 0 334 16 84 56 194 92 255 22 38 29 43 59
43 l35 0 0 -492z m160 -53 c0 -388 -3 -545 -11 -545 -6 0 -24 8 -40 17 l-29
17 0 528 0 528 40 0 40 0 0 -545z"/>
</g>
</svg>
