<svg data-name="Layer 1" xmlns="http://www.w3.org/2000/svg" width="1074.4" height="584.2" viewBox="0 0 1074.4 584.2"><ellipse cx="540.6" cy="549.3" rx="527.5" ry="34.9" fill="#f2f2f2"/><path d="M520 167c-86 0-147 55-147 184 0 146 61 184 147 184s152-42 152-184c0-152-66-184-152-184zm1 320c-60 0-91-35-91-136 0-89 33-136 92-136s92 31 92 136c0 98-33 136-93 136z" fill="#2f2e41"/><path d="M321 434h-35V329a21 21 0 00-21-21h-9a21 21 0 00-20 21v105H135a12 12 0 01-10-18l106-201a21 21 0 00-10-29l-6-3a21 21 0 00-27 10L58 435a28 28 0 00-3 13 28 28 0 0028 28h153v67a25 25 0 0025 25 25 25 0 0025-25v-67h35a21 21 0 0022-21 21 21 0 00-22-21zM979 434h-35V329a21 21 0 00-21-21h-9a21 21 0 00-20 21v105H793a12 12 0 01-10-18l106-201a21 21 0 00-10-29l-6-3a21 21 0 00-27 10L716 435a28 28 0 00-3 13 28 28 0 0028 28h153v67a25 25 0 0025 25 25 25 0 0025-25v-67h35a21 21 0 0022-21 21 21 0 00-22-21z" fill="#f9a826"/><path d="M331 421h-35V317a21 21 0 00-21-21h-9a21 21 0 00-21 21v104H145a12 12 0 01-10-17l106-201a21 21 0 00-10-29l-6-3a21 21 0 00-28 9L68 422a28 28 0 00-3 14h0a28 28 0 0028 28h152v66a25 25 0 0025 25h0a25 25 0 0026-25v-66h35a21 21 0 0022-21h0a21 21 0 00-22-22zM998 421h-36V317a21 21 0 00-21-21h-8a21 21 0 00-21 21v104H812a12 12 0 01-11-17l106-201a21 21 0 00-9-29l-7-3a21 21 0 00-27 9L735 422a28 28 0 00-4 14h0a28 28 0 0029 28h152v66a25 25 0 0025 25h0a25 25 0 0025-25v-66h36a21 21 0 0021-21h0a21 21 0 00-21-22zM540 156c-86 0-148 55-148 184 0 146 62 184 148 184s151-42 151-184c0-152-65-184-151-184zm1 320c-60 0-91-35-91-136 0-89 32-136 92-136s92 31 92 136c0 98-34 136-93 136z" fill="none" stroke="#3f3d56" stroke-miterlimit="10"/><circle cx="471.1" cy="18.3" r="12.9" fill="#2f2e41"/><ellipse cx="502.6" cy="46.9" rx="36.2" ry="46.9" fill="#2f2e41"/><path d="M503 80c-19 0-34-18-36-40a61 61 0 00-1 7c0 26 17 47 37 47s36-21 36-47a61 61 0 00-1-7c-2 22-17 40-35 40z" opacity=".1"/><path d="M576 184c-1 3-4 6-8 8-7 3-17 5-26 5a45 45 0 01-8 0 21 21 0 01-12-6 2 2 0 010-3c5-5 14-8 22-11 6-2 17-6 24-6 7 1 9 9 8 13z" fill="#3f3d56"/><path d="M576 184c-1 3-4 6-8 8-7 3-17 5-26 5a45 45 0 01-8 0 21 21 0 01-12-6 2 2 0 010-3c5-5 14-8 22-11 6-2 17-6 24-6 7 1 9 9 8 13z" opacity=".1"/><path d="M477 160a20 20 0 00-1 15 26 26 0 009 13c10 8 24 9 37 9a285 285 0 0034-2 41 41 0 0011-3c4-2 7-5 9-9s0-10-3-13-8-3-12-3l-23-2 8-5c4-2 6-6 9-9a129 129 0 0114-14c0 4 3 8 6 11l11 8c8 7 13 16 22 23a44 44 0 0016-8l-3-6a4 4 0 00-2-2h-3c-3-1-4-4-5-7-3-7-9-13-14-19a98 98 0 01-10-15l-6-9c-2-3-6-5-9-5l-9 3a230 230 0 00-23 16c-4 4-8 7-13 9l-6 2-8 7c-10 9-23 15-36 15z" fill="#3f3d56"/><path d="M525 96a24 24 0 01-1 8 10 10 0 01-6 6 12 12 0 01-6 0 11 11 0 01-4-2c-3-1-4-4-4-6v-8a43 43 0 00-2-7v-2a96 96 0 01-1-5 18 18 0 00-1-5 15 15 0 00-2-3l-1-1a6 6 0 01-1-4 3 3 0 011 0v-1a2 2 0 001-1 3 3 0 000-2 11 11 0 00-1-2l-1-2 3-2a17 17 0 018-2l5 2 1 5a1 1 0 001 1 5 5 0 002 0 5 5 0 002-1h2c1 5 1 11 3 16l1 7v3a7 7 0 000 1 16 16 0 001 2 9 9 0 010 1 15 15 0 010 4z" fill="#fbbebe"/><circle cx="503.2" cy="45" r="18.6" fill="#fbbebe"/><path d="M621 146a30 30 0 00-5-14l1 9a3 3 0 01-3-1 10 10 0 01-2-4 67 67 0 00-8-14c-12-1-24-6-34-12l-30-19a44 44 0 00-6-2l-10-4a13 13 0 01-2-1 10 10 0 01-1-1 20 20 0 01-4-6l-4-12a11 11 0 013-2 12 12 0 012-1h2a12 12 0 015 1l7 4a114 114 0 0110 8l5 5a42 42 0 006 3l31 19 10 7 16 10 9 7a10 10 0 012 2 8 8 0 011 4 31 31 0 01-1 14z" fill="#fbbebe"/><path d="M530 110c-1 6-7 9-10 14-4 6-2 13-1 20l-7 7-5 3a57 57 0 01-7 4l-6 4a32 32 0 01-7 2c-4 2-9 1-13-1a6 6 0 01-2 0 2 2 0 010-1 4 4 0 01-1-2l4-22a85 85 0 014-13 85 85 0 015-10 68 68 0 018-11 18 18 0 004-5l1-8a17 17 0 012-6 17 17 0 011-3l1 2 1 1 1 2 2 5a22 22 0 003 6 6 6 0 0011-1 21 21 0 002-6 19 19 0 001-7l-5-15a15 15 0 01-1-5 3 3 0 010-1 12 12 0 012-1h1l5 22v1a137 137 0 001 6v1l1 2c2 6 5 11 4 16z" fill="#f9a826"/><path d="M605 189a7 7 0 001 3c1 2 4 3 6 3a188 188 0 0043-1 5 5 0 002-1c2-1 0-5-2-6l-7-1a22 22 0 01-7-3l-14-9c-3-2-6-3-9-2-9 2-13 8-13 17z" fill="#3f3d56"/><path d="M501 83v1l-1 6-6 16-16 43-4 10-2 4-4 13a27 27 0 000 9c0 3 2 6 5 7 1 1 3 1 3 3l-2 1a7 7 0 01-6-2c-1-1-3-3-5-3l-4 1c-5 2-11 1-16-1 0-2 2-4 5-4h6a4 4 0 002-1 4 4 0 001-2 79 79 0 004-13l2-14 3-10a225 225 0 005-23 78 78 0 001-9l1-8a61 61 0 012-10l3-10c1-6 3-11 6-15a14 14 0 0110-5 10 10 0 012 0h1a9 9 0 012 1c1-1 2 0 2 1a7 7 0 011 4 52 52 0 01-1 10z" fill="#fbbebe"/><path d="M503 87h-1l-2 3-1-5-5-18a10 10 0 012 0 3 3 0 011 0l1 5 3 9v2z" fill="#f9a826"/><path d="M519 30a13 13 0 01-4 9 12 12 0 01-1 1 13 13 0 01-8 3h-15a13 13 0 010-25h15a13 13 0 0113 12z" fill="#2f2e41"/><circle cx="532.8" cy="18.3" r="12.9" fill="#2f2e41"/><path d="M533 5h-1a13 13 0 010 26h1a13 13 0 100-26zM471 5h1a13 13 0 000 26h-1a13 13 0 010-26zM514 40a13 13 0 01-8 3h-15a13 13 0 01-8-3z" opacity=".1"/><path d="M611 134s3 9 6 7l-2-13z" fill="#fbbebe"/><path d="M1007 420a21 21 0 103-40v10l-5-9a21 21 0 00-11 12 20 20 0 00-1 6 21 21 0 0014 21z" fill="#57b894"/><path d="M1032 544c-2-9 6-17 14-23s16-10 19-19c4-13-8-24-16-35a125 125 0 01-17-24l-4-11c-1-6 1-12 3-17l20-54" fill="none" stroke="#3f3d56" stroke-miterlimit="10"/><path d="M1008 417a21 21 0 102-40l1 11-5-10a21 21 0 00-11 12 20 20 0 00-1 6 21 21 0 0014 21z" fill="none" stroke="#3f3d56" stroke-miterlimit="10"/><path d="M1029 358a21 21 0 0115-14l2 11 3-11a21 21 0 11-20 14z" fill="#57b894"/><path d="M1031 354a21 21 0 0115-13l1 10 3-11a21 21 0 11-19 14z" fill="none" stroke="#3f3d56" stroke-miterlimit="10"/><path d="M1045 468a21 21 0 0018-37l-2 8-2-11a21 21 0 10-14 40z" fill="#57b894"/><path d="M1046 464a21 21 0 0018-37l-2 8-2-10h0a21 21 0 10-14 39z" fill="none" stroke="#3f3d56" stroke-miterlimit="10"/><path d="M1023 502a21 21 0 104-16l10 14-13-8a21 21 0 00-1 10z" fill="#57b894"/><path d="M1024 499a21 21 0 104-16l9 14-12-7a21 21 0 00-1 9z" fill="none" stroke="#3f3d56" stroke-miterlimit="10"/><path d="M9 470a14 14 0 102-26v7l-3-6a14 14 0 00-7 8 13 13 0 00-1 3 14 14 0 009 14z" fill="#57b894"/><path d="M25 552c-1-6 4-11 9-15s11-7 13-13c3-8-5-16-11-22a82 82 0 01-10-16 22 22 0 01-3-8l2-11 13-35" fill="none" stroke="#3f3d56" stroke-miterlimit="10"/><path d="M10 468a14 14 0 101-26l1 7-4-6a14 14 0 00-7 8 13 13 0 000 4 14 14 0 009 13z" fill="none" stroke="#3f3d56" stroke-miterlimit="10"/><path d="M24 430a14 14 0 0110-9l1 7 2-7a14 14 0 11-13 9z" fill="#57b894"/><path d="M25 427a14 14 0 019-9l2 7 2-7a14 14 0 11-13 9z" fill="none" stroke="#3f3d56" stroke-miterlimit="10"/><path d="M34 502a14 14 0 0012-25l-1 6-2-7a14 14 0 10-9 26z" fill="#57b894"/><path d="M35 499a14 14 0 0012-24l-2 5-1-6h0a14 14 0 10-9 25z" fill="none" stroke="#3f3d56" stroke-miterlimit="10"/><path d="M20 525a14 14 0 102-11l7 9-9-5a14 14 0 000 7z" fill="#57b894"/><path d="M20 523a14 14 0 103-11l6 9-8-5a14 14 0 00-1 7z" fill="none" stroke="#3f3d56" stroke-miterlimit="10"/><ellipse cx="480.9" cy="319.1" rx="17" ry="22" fill="#2f2e41"/><ellipse cx="573.4" cy="319.6" rx="17" ry="22" fill="#2f2e41"/><path d="M560 385c0 10-13 18-31 18s-31-8-31-18c0-9 11-16 25-18a50 50 0 016 0 51 51 0 0112 1c11 2 19 9 19 17z" fill="#2f2e41"/><ellipse cx="484.9" cy="314.1" rx="17" ry="22" fill="none" stroke="#3f3d56" stroke-miterlimit="10"/><ellipse cx="577.4" cy="314.6" rx="17" ry="22" fill="none" stroke="#3f3d56" stroke-miterlimit="10"/><ellipse cx="533.4" cy="379.6" rx="31" ry="18" fill="none" stroke="#3f3d56" stroke-miterlimit="10"/><path d="M541 369a5 5 0 01-1 4 4 4 0 01-4 1h-10a5 5 0 01-4-5 5 5 0 011-2 47 47 0 016-1 48 48 0 0112 1 5 5 0 010 2z" fill="#fff"/><circle cx="484.9" cy="308.1" r="5" fill="#fff"/><circle cx="577.9" cy="308.1" r="5" fill="#fff"/><circle cx="582.9" cy="355.1" r="5" fill="#f9a826" opacity=".3"/><circle cx="460.9" cy="355.1" r="5" fill="#f9a826" opacity=".3"/></svg>